<svg xmlns="http://www.w3.org/2000/svg" viewBox="0 0 1200 200" font-family="Segoe UI, Arial, sans-serif">
  <defs>
    <linearGradient id="bg" x1="0" y1="0" x2="0" y2="1">
      <stop offset="0" stop-color="#f8fbff"/>
      <stop offset="1" stop-color="#eef3fa"/>
    </linearGradient>
  </defs>
  <rect width="1200" height="200" rx="16" fill="url(#bg)"/>
  <text x="40" y="32" font-size="20" font-weight="700" fill="#0b1f3a">Implementation Phases</text>
  <text x="40" y="54" font-size="12" fill="#5a6b82">Invoice + Document Intelligence rollout</text>

  <line x1="80" y1="100" x2="1120" y2="100" stroke="#cbd5e1" stroke-width="3"/>
  <path d="M254,94 L266,100 L254,106 Z" fill="#94a3b8"/>
  <path d="M600,94 L612,100 L600,106 Z" fill="#94a3b8"/>
  <path d="M947,94 L959,100 L947,106 Z" fill="#94a3b8"/>

  <circle cx="80" cy="100" r="20" fill="#1f6feb"/>
  <text x="80" y="105" font-size="14" font-weight="700" fill="#ffffff" text-anchor="middle">1</text>
  <text x="80" y="140" font-size="13" font-weight="700" fill="#1f6feb" text-anchor="middle">Pilot</text>
  <text x="80" y="160" font-size="11" fill="#5a6b82" text-anchor="middle">Narrow domain,</text>
  <text x="80" y="176" font-size="11" fill="#5a6b82" text-anchor="middle">baseline metrics</text>

  <circle cx="427" cy="100" r="20" fill="#0f766e"/>
  <text x="427" y="105" font-size="14" font-weight="700" fill="#ffffff" text-anchor="middle">2</text>
  <text x="427" y="140" font-size="13" font-weight="700" fill="#0f766e" text-anchor="middle">Harden</text>
  <text x="427" y="160" font-size="11" fill="#5a6b82" text-anchor="middle">Exception handling,</text>
  <text x="427" y="176" font-size="11" fill="#5a6b82" text-anchor="middle">runbooks, governance</text>

  <circle cx="773" cy="100" r="20" fill="#8250df"/>
  <text x="773" y="105" font-size="14" font-weight="700" fill="#ffffff" text-anchor="middle">3</text>
  <text x="773" y="140" font-size="13" font-weight="700" fill="#8250df" text-anchor="middle">Scale</text>
  <text x="773" y="160" font-size="11" fill="#5a6b82" text-anchor="middle">Reusable normalization</text>
  <text x="773" y="176" font-size="11" fill="#5a6b82" text-anchor="middle">contracts</text>

  <circle cx="1120" cy="100" r="20" fill="#bc4c00"/>
  <text x="1120" y="105" font-size="14" font-weight="700" fill="#ffffff" text-anchor="middle">4</text>
  <text x="1120" y="140" font-size="13" font-weight="700" fill="#bc4c00" text-anchor="middle">Optimize</text>
  <text x="1120" y="160" font-size="11" fill="#5a6b82" text-anchor="middle">Thresholding &amp;</text>
  <text x="1120" y="176" font-size="11" fill="#5a6b82" text-anchor="middle">cost-performance</text>
</svg>
